PathFileType	4	(X/Y/Z)	/home/nbianco/projects/addbio/data/HamnerRunning2013/Processed/subject11//results/MarkerData/run500.trc
DataRate	CameraRate	NumFrames	NumMarkers	Units	OrigDataRate	OrigDataStartFrame	OrigNumFrames
100	100	9	42	m	100	84	169
Frame#	Time	C7			CLAV			LACR			LASI			LCAL			LFAradius			LFAsuperior			LFAulna			LLEL			LMEL			LMT5			LPSI			LTB1			LTB2			LTB3			LTH1			LTH2			LTH3			LTOE			LUA1			LUA2			LUA3			RACR			RASI			RCAL			RFAradius			RFAsuperior			RFAulna			RLEL			RMEL			RMT5			RPSI			RTB1			RTB2			RTB3			RTH1			RTH2			RTH3			RTOE			RUA1			RUA2			RUA3		
		X1	Y1	Z1	X2	Y2	Z2	X3	Y3	Z3	X4	Y4	Z4	X5	Y5	Z5	X6	Y6	Z6	X7	Y7	Z7	X8	Y8	Z8	X9	Y9	Z9	X10	Y10	Z10	X11	Y11	Z11	X12	Y12	Z12	X13	Y13	Z13	X14	Y14	Z14	X15	Y15	Z15	X16	Y16	Z16	X17	Y17	Z17	X18	Y18	Z18	X19	Y19	Z19	X20	Y20	Z20	X21	Y21	Z21	X22	Y22	Z22	X23	Y23	Z23	X24	Y24	Z24	X25	Y25	Z25	X26	Y26	Z26	X27	Y27	Z27	X28	Y28	Z28	X29	Y29	Z29	X30	Y30	Z30	X31	Y31	Z31	X32	Y32	Z32	X33	Y33	Z33	X34	Y34	Z34	X35	Y35	Z35	X36	Y36	Z36	X37	Y37	Z37	X38	Y38	Z38	X39	Y39	Z39	X40	Y40	Z40	X41	Y41	Z41	X42	Y42	Z42

85	0.97	0.72386	1.51007	-0.326398	0.840436	1.41985	-0.310666	0.768633	1.46814	-0.500024	0.789931	1.02239	-0.443996	0.966408	0.0833942	-0.358853	0.700247	1.07137	-0.591551	0.590334	1.19686	-0.631435	0.645373	1.04079	-0.624983	0.517853	1.28031	-0.608277	0.516262	1.26454	-0.532777	1.15239	0.110297	-0.422163	0.622452	1.03925	-0.375255	0.999602	0.407255	-0.378333	0.980386	0.313466	-0.444006	1.02862	0.255553	-0.36958	0.768571	0.825596	-0.503307	0.884709	0.731814	-0.473368	0.88653	0.609927	-0.456639	1.18051	0.15977	-0.33112	0.682471	1.43099	-0.564691	0.617997	1.38036	-0.510143	0.569768	1.34275	-0.566003	0.805953	1.49425	-0.175773	0.787852	1.00171	-0.180771	0.15973	0.485877	-0.245839	0.924334	1.16939	-0.0238915	0.786538	1.21334	0.028019	0.903464	1.10921	0.0108298	0.682432	1.24425	0.0321348	0.653868	1.21247	-0.0389068	0.0647579	0.323372	-0.189245	0.617967	1.0216	-0.277224	0.447581	0.424907	-0.256234	0.381782	0.441651	-0.189256	0.279061	0.399307	-0.247802	0.641631	0.831935	-0.152235	0.681842	0.701296	-0.169026	0.573565	0.621165	-0.188585	0.0818297	0.27561	-0.275555	0.760307	1.4392	-0.0784527	0.684871	1.37466	-0.0832515	0.717205	1.3349	-0.0253994
86	0.98	0.726098	1.50548	-0.329055	0.841165	1.4138	-0.310812	0.773246	1.46071	-0.501631	0.788213	1.01914	-0.445761	0.940441	0.0844385	-0.354201	0.714376	1.06264	-0.594319	0.603324	1.18529	-0.637494	0.661888	1.03055	-0.630121	0.528863	1.26713	-0.617484	0.524372	1.25144	-0.541624	1.12529	0.0924513	-0.420432	0.622105	1.03184	-0.375606	0.990851	0.400503	-0.378265	0.968146	0.306696	-0.44125	1.01281	0.246266	-0.367974	0.767067	0.823693	-0.505087	0.884691	0.734335	-0.475073	0.890008	0.611138	-0.458675	1.15958	0.138096	-0.330147	0.688721	1.4214	-0.569286	0.623736	1.36912	-0.515867	0.577732	1.33118	-0.573898	0.806122	1.48858	-0.176582	0.787579	0.997683	-0.181491	0.18612	0.502449	-0.250484	0.91861	1.1599	-0.0215874	0.780442	1.20711	0.0273175	0.895163	1.10003	0.0121954	0.677089	1.24033	0.030111	0.648942	1.20909	-0.0412362	0.0747142	0.352338	-0.189244	0.617654	1.01808	-0.27759	0.465485	0.420809	-0.258843	0.40007	0.442144	-0.190818	0.296466	0.408207	-0.251345	0.647088	0.822199	-0.149707	0.691007	0.694262	-0.168942	0.587206	0.609033	-0.188498	0.0882078	0.298792	-0.272534	0.758893	1.4341	-0.0796422	0.682999	1.37063	-0.0847319	0.714705	1.32968	-0.0271204
87	0.99	0.727672	1.49997	-0.331742	0.841603	1.40719	-0.310985	0.777097	1.45262	-0.503137	0.785917	1.01517	-0.448305	0.905035	0.0871366	-0.34948	0.730331	1.05309	-0.597218	0.617358	1.1721	-0.64393	0.680199	1.01929	-0.635169	0.540741	1.2519	-0.627237	0.533274	1.23628	-0.551663	1.08697	0.0718965	-0.422362	0.621017	1.02476	-0.375517	0.979415	0.391477	-0.375956	0.951506	0.298772	-0.436985	0.99085	0.234932	-0.365329	0.765538	0.822274	-0.503395	0.885031	0.736926	-0.475588	0.889649	0.609763	-0.458869	1.1292	0.112022	-0.330509	0.694602	1.41039	-0.573914	0.628674	1.35618	-0.523075	0.586086	1.31766	-0.58367	0.805724	1.48242	-0.177173	0.78735	0.992242	-0.183085	0.213818	0.514666	-0.256103	0.911134	1.1486	-0.0187812	0.772987	1.20005	0.0270471	0.884835	1.08954	0.0141989	0.670505	1.23588	0.027992	0.643013	1.20512	-0.043792	0.0921424	0.375476	-0.188615	0.617392	1.01315	-0.278838	0.486161	0.415871	-0.260278	0.420577	0.44155	-0.191453	0.316607	0.414339	-0.253781	0.652543	0.811657	-0.147792	0.700514	0.686761	-0.168472	0.602053	0.596123	-0.18942	0.103186	0.316604	-0.269385	0.756625	1.42785	-0.080473	0.680045	1.3656	-0.0860456	0.711205	1.32321	-0.0286597
88	1	0.728504	1.49376	-0.334426	0.841831	1.40039	-0.311173	0.780079	1.44454	-0.504583	0.783497	1.01059	-0.451146	0.862843	0.0903921	-0.346332	0.747849	1.04293	-0.600088	0.632629	1.15768	-0.650713	0.700086	1.00737	-0.639874	0.553338	1.23504	-0.636864	0.543141	1.2193	-0.562081	1.04154	0.0558302	-0.425039	0.619062	1.01839	-0.374846	0.966172	0.381172	-0.371989	0.93123	0.291397	-0.433151	0.964088	0.224035	-0.362022	0.763535	0.819586	-0.500554	0.883539	0.735016	-0.475747	0.884281	0.60429	-0.457918	1.0904	0.089066	-0.330725	0.699997	1.39829	-0.57845	0.632873	1.34205	-0.531397	0.595008	1.30224	-0.594501	0.804716	1.47636	-0.177496	0.787493	0.985639	-0.185389	0.241641	0.523148	-0.261898	0.901951	1.13596	-0.0152643	0.764316	1.19247	0.0271656	0.872572	1.0782	0.0169251	0.662794	1.23118	0.0255315	0.6361	1.20086	-0.0467417	0.116035	0.391492	-0.187542	0.617506	1.00704	-0.280795	0.509756	0.410583	-0.26099	0.443311	0.439938	-0.191467	0.338958	0.41774	-0.254877	0.658858	0.800009	-0.146836	0.711048	0.678898	-0.167966	0.618617	0.582956	-0.191456	0.125267	0.328941	-0.266972	0.753316	1.42115	-0.0811902	0.675976	1.35996	-0.0876664	0.706541	1.31625	-0.0302459
89	1.01	0.728676	1.48739	-0.336999	0.84186	1.3939	-0.311284	0.782208	1.43708	-0.506129	0.781155	1.0055	-0.45392	0.816665	0.0933493	-0.345069	0.766687	1.03237	-0.602716	0.649442	1.14252	-0.657407	0.721458	0.995168	-0.644086	0.56686	1.21699	-0.645921	0.554245	1.20097	-0.572088	0.993245	0.0483696	-0.425694	0.616343	1.01291	-0.373605	0.951789	0.371613	-0.368445	0.908055	0.286255	-0.430675	0.934114	0.216036	-0.359014	0.760338	0.814515	-0.49926	0.879404	0.72738	-0.476824	0.876456	0.596068	-0.456674	1.04573	0.0747597	-0.330079	0.705046	1.38552	-0.582772	0.63677	1.32717	-0.540464	0.604807	1.28524	-0.605486	0.803015	1.47098	-0.177529	0.787926	0.978123	-0.188227	0.269958	0.528105	-0.267066	0.891088	1.12262	-0.0110022	0.754429	1.18466	0.0275571	0.85846	1.06646	0.0203591	0.654101	1.22656	0.0224784	0.628342	1.19665	-0.0502239	0.144933	0.400198	-0.186317	0.617902	1.00003	-0.28327	0.536278	0.405359	-0.261383	0.468676	0.436942	-0.191295	0.36364	0.418342	-0.254803	0.666558	0.787578	-0.147063	0.722648	0.671355	-0.167542	0.636733	0.570319	-0.194127	0.151808	0.335907	-0.265173	0.749012	1.4149	-0.0820831	0.67098	1.35427	-0.0901153	0.700726	1.30982	-0.0321455
90	1.02	0.728467	1.48153	-0.339287	0.841635	1.38818	-0.31117	0.783649	1.43063	-0.507876	0.77862	0.999976	-0.456755	0.768636	0.0957978	-0.344867	0.786832	1.02172	-0.604805	0.668166	1.12721	-0.663324	0.744345	0.983138	-0.647649	0.581899	1.19822	-0.654181	0.567037	1.18197	-0.581208	0.944433	0.0479611	-0.424355	0.613146	1.0084	-0.371995	0.935578	0.364327	-0.366825	0.882316	0.283731	-0.429192	0.901737	0.211698	-0.357087	0.755667	0.807635	-0.500304	0.873222	0.716151	-0.478861	0.869005	0.587461	-0.455662	0.998054	0.0692674	-0.328995	0.71001	1.3728	-0.586576	0.641054	1.31199	-0.549857	0.615963	1.26752	-0.615785	0.800536	1.4667	-0.177384	0.788028	0.970048	-0.191221	0.299396	0.529429	-0.271008	0.878538	1.10908	-0.00635174	0.743266	1.1769	0.027936	0.842496	1.05478	0.0242641	0.644609	1.22245	0.0186791	0.620034	1.19291	-0.0543263	0.177756	0.401881	-0.185293	0.617947	0.992461	-0.285884	0.565495	0.400544	-0.261596	0.497097	0.432254	-0.191265	0.391048	0.41622	-0.254023	0.675602	0.775723	-0.148287	0.734914	0.665046	-0.167183	0.655958	0.559239	-0.196685	0.181305	0.33718	-0.263368	0.743965	1.40978	-0.0833241	0.665445	1.34918	-0.0936932	0.693919	1.30484	-0.0345158
91	1.03	0.728203	1.47681	-0.341186	0.841099	1.38347	-0.310752	0.784821	1.42527	-0.509706	0.775629	0.994309	-0.459951	0.719863	0.097894	-0.344902	0.808567	1.01158	-0.605957	0.689108	1.1125	-0.667853	0.768895	0.971942	-0.650291	0.599183	1.17954	-0.661531	0.58196	1.16318	-0.589318	0.895503	0.0498898	-0.423188	0.60985	1.00489	-0.370346	0.915778	0.358989	-0.366673	0.853627	0.28235	-0.427906	0.866744	0.209439	-0.356357	0.749848	0.800813	-0.502239	0.865648	0.704569	-0.480336	0.861637	0.579675	-0.454907	0.949227	0.0685364	-0.328349	0.715156	1.36105	-0.589448	0.646539	1.29709	-0.5589	0.628974	1.25038	-0.624736	0.797348	1.46357	-0.177324	0.787008	0.962089	-0.193601	0.329809	0.5271	-0.273515	0.864315	1.09573	-0.00190058	0.730918	1.16961	0.0278076	0.824602	1.0436	0.0280928	0.63454	1.21932	0.0141491	0.611541	1.19014	-0.0590903	0.213923	0.396848	-0.18473	0.616872	0.985024	-0.287904	0.597049	0.396472	-0.261637	0.528643	0.426214	-0.191531	0.421443	0.411773	-0.253122	0.685242	0.766184	-0.149858	0.747635	0.660622	-0.166819	0.676235	0.550731	-0.198553	0.214226	0.332228	-0.26155	0.738503	1.40608	-0.0849157	0.659816	1.34523	-0.0982741	0.686337	1.30172	-0.0373453
92	1.04	0.728036	1.47345	-0.342791	0.840246	1.37984	-0.310116	0.786331	1.42088	-0.511337	0.772627	0.98905	-0.463228	0.670691	0.0997723	-0.345014	0.832218	1.00298	-0.605799	0.71222	1.09932	-0.670684	0.795308	0.962491	-0.651635	0.619084	1.16206	-0.667861	0.599066	1.1456	-0.596419	0.846086	0.0507623	-0.423698	0.606879	1.00231	-0.369047	0.890909	0.353749	-0.366336	0.821387	0.279849	-0.42642	0.828574	0.206726	-0.356346	0.743343	0.795648	-0.50326	0.856464	0.694736	-0.479928	0.851076	0.572274	-0.454118	0.899922	0.0684737	-0.328577	0.720764	1.35107	-0.591174	0.653915	1.28318	-0.566583	0.643937	1.23509	-0.631892	0.793754	1.46144	-0.177595	0.7846	0.955302	-0.194521	0.360207	0.521315	-0.274784	0.848489	1.08294	0.00187562	0.717706	1.16333	0.0266448	0.8048	1.03326	0.0310184	0.624096	1.21757	0.00904954	0.603169	1.18882	-0.0645233	0.252968	0.385503	-0.184604	0.614452	0.978752	-0.288522	0.630563	0.393473	-0.261562	0.56285	0.419984	-0.192095	0.454745	0.405632	-0.252618	0.693977	0.759956	-0.151301	0.761108	0.658359	-0.166362	0.698087	0.545387	-0.199557	0.2517	0.321112	-0.260524	0.732861	1.40374	-0.0867589	0.654356	1.34269	-0.103368	0.678154	1.30042	-0.040536
93	1.05	0.727922	1.47131	-0.344354	0.839154	1.37728	-0.309434	0.788677	1.41739	-0.512534	0.770779	0.984827	-0.465556	0.621226	0.101531	-0.345398	0.857729	0.997258	-0.604116	0.736882	1.08873	-0.671819	0.82365	0.955885	-0.651348	0.641166	1.14696	-0.672991	0.617865	1.13001	-0.602388	0.796062	0.050367	-0.425313	0.604652	1.00057	-0.368475	0.86075	0.346925	-0.36476	0.785725	0.27512	-0.424862	0.787203	0.202329	-0.356413	0.736421	0.792411	-0.503016	0.8451	0.686833	-0.478083	0.834419	0.56442	-0.453078	0.850247	0.0677095	-0.329463	0.727221	1.34316	-0.592007	0.663393	1.27096	-0.571881	0.660248	1.22245	-0.637017	0.790145	1.46015	-0.178237	0.781408	0.950808	-0.193738	0.389478	0.512237	-0.275246	0.831192	1.07127	0.00478962	0.703971	1.15861	0.0242238	0.783397	1.02411	0.0321874	0.613373	1.21746	0.00356858	0.595009	1.18923	-0.0705946	0.294274	0.368594	-0.184678	0.611285	0.974736	-0.287447	0.665636	0.391839	-0.261473	0.598879	0.414988	-0.192847	0.490516	0.398407	-0.252801	0.700086	0.75677	-0.153052	0.775807	0.658495	-0.16571	0.722058	0.543228	-0.199809	0.293918	0.304803	-0.260881	0.727103	1.40268	-0.0887546	0.648986	1.34157	-0.108433	0.66947	1.30061	-0.0440404
